<svg version="1.0" xmlns="http://www.w3.org/2000/svg" width="300" height="300" viewBox="0 0 225 225"><path d="M93 59.2c-34.7 2-73 17.5-85.5 34.6-5.1 6.9-6.8 12.9-6.3 22 .5 9.8 3.3 15.8 10.9 23.2 6.7 6.5 13.5 10.8 26.1 16.2 8.1 3.5 26.5 9.3 35.3 11.2l3 .7 8-17.3C96.9 122.6 111.9 92 112.7 92c.4 0 8 16.7 16.7 37.1l16 37.2 6.7-.7c21.8-2 54.3-18.1 65.1-32.4 5.3-6.9 6.8-11.1 6.8-18.9 0-11.3-5.7-21.2-17.2-29.8C192.1 73.5 175.2 66 156 62c-12.1-2.6-43.7-4-63-2.8zm48.7 6.3c25.2 3.3 51.3 15.2 59.8 27.3 2.7 3.9 3 5.1 3 11.5-.1 5.4-.6 8.2-2.2 11.3-4.2 8-15.8 15.8-31.4 21.2l-8.7 3.1-15.8-19.6c-23.9-29.5-32.4-39.8-33.2-40-.4-.2-12.4 13.2-26.6 29.6l-25.9 30-6.5-2.5c-20.5-7.7-31.4-16.5-34.2-27.6-2.2-8.7 1.5-15.8 13.2-25.1 12-9.5 28.9-16.3 47.3-19.1 12.7-2 46.4-2 61.2-.1z"/></svg>