<svg width="1510" height="181" viewBox="0 0 1510 181" fill="none" xmlns="http://www.w3.org/2000/svg">
    <g style="mix-blend-mode:overlay">
        <path fill-rule="evenodd" clip-rule="evenodd" d="M1122.3 162.843L1117.68 181C1091.56 173.213 1051.39 157.889 997.01 134.919C982.992 128.906 971.738 120.004 963.132 108.199C954.731 96.4902 950.552 83.4687 950.552 68.9806C950.552 56.3688 953.741 44.9212 960.108 34.5194C966.654 23.9101 975.449 15.5176 986.572 9.302C997.657 3.10795 1009.75 0 1022.94 0C1036.13 0 1048.22 3.10795 1059.3 9.30199C1070.42 15.5143 1079.13 23.8971 1085.54 34.4881L1085.56 34.5195L1085.58 34.5506C1092.07 44.9501 1095.32 56.3865 1095.32 68.9806C1095.32 78.6923 1093.38 87.7769 1089.51 96.2918C1085.62 104.856 1080.17 112.346 1073.12 118.789C1066.2 125.102 1058.27 129.902 1049.31 133.197L1035.95 138.103L1049.3 143.036C1066.64 149.449 1091.02 156.044 1122.3 162.843ZM1065.95 94.588L1065.96 94.5687L1065.97 94.5492C1070.37 86.8006 1072.53 78.2403 1072.53 68.9806C1072.53 59.7321 1070.37 51.2309 1065.97 43.6026C1061.61 35.9122 1055.63 29.8249 1048.08 25.4245C1040.49 20.859 1032.06 18.597 1022.94 18.597C1013.81 18.597 1005.39 20.8591 997.79 25.4246C990.245 29.8238 984.268 35.9091 979.908 43.5966C975.503 51.2265 973.338 59.7297 973.338 68.9806C973.338 78.2403 975.507 86.8006 979.897 94.5492L979.908 94.5687L979.919 94.5881C984.284 102.14 990.253 108.201 997.757 112.72L997.791 112.74L997.824 112.76C1005.42 117.18 1013.83 119.364 1022.94 119.364C1032.04 119.364 1040.45 117.18 1048.05 112.76L1048.08 112.74L1048.11 112.72C1055.62 108.201 1061.59 102.14 1065.95 94.588ZM169.531 2.03346V102.164L87.8755 2.03346H72.0673V135.928H92.8274V38.0023L172.461 135.928H190.291V2.03346H169.531ZM262.449 19.4104H339.852V2.03346H241.689V135.928H262.449V84.8878H315.74V68.3243H262.449V19.4104ZM549.774 96.9653V2.03346H570.534V97.7208C562.091 97.6478 554.064 97.4337 549.774 96.9653ZM621.931 96.9563V2.03346H642.692V96.4633L621.931 96.9563ZM468.118 2.03346L542.606 93.3744C542.446 93.2536 542.283 93.1309 542.118 93.0066C537.158 89.2682 530.167 84 527.418 84H510.476L473.07 38.0023V104.614C465.381 105.052 458.025 105.487 452.31 105.855V2.03346H468.118ZM401.003 110.79V2.03346H380.243V112.623C387.271 111.854 394.4 111.254 401.003 110.79ZM681.233 19.207H727.23V94.4558L747.99 93.9628V19.207H793.986V2.03346H681.233V19.207ZM1165.71 69.834L1118.62 135.928H1142.99L1179.18 82.6556L1215.37 135.928H1240.31L1191.4 67.7749L1238.13 2.03346H1213.4L1178.85 54.5829L1142.99 2.03346H1118.67L1165.71 69.834ZM1366.52 117.345C1361.73 123.942 1355.18 129.065 1346.66 132.663C1338.05 136.164 1328.34 137.961 1317.45 137.961C1309.75 137.961 1301.54 137.06 1292.79 135.227C1285.65 133.707 1278.6 131.693 1271.63 129.182L1276.17 111.968C1282.1 114.425 1287.6 116.415 1292.66 117.926C1299.62 120.009 1307.79 120.991 1317.04 120.991C1326.67 120.991 1335.05 118.944 1341.8 114.432C1348.83 109.829 1352.86 103.348 1352.86 95.2122C1352.86 86.6538 1349.12 79.7723 1341.95 75.1461C1335.06 70.6961 1325.5 68.8235 1314 68.8235C1303.04 68.8235 1290.85 70.5152 1277.46 73.8215L1283.35 2.03346H1364.5V19.207H1302.13L1298.89 55.8943L1305.5 54.8383C1311.14 53.9392 1317.34 53.48 1324.14 53.48C1334.62 53.48 1343.51 55.2767 1350.93 58.6959L1350.96 58.7108L1351 58.7252C1358.4 62.0148 1363.92 66.667 1367.77 72.641L1367.79 72.6609L1367.8 72.6808C1371.62 78.4903 1373.62 85.4539 1373.62 93.7888C1373.62 103.12 1371.19 110.889 1366.52 117.345ZM1483.04 132.663C1491.56 129.065 1498.11 123.942 1502.89 117.345C1507.57 110.889 1510 103.12 1510 93.7888C1510 85.4539 1508 78.4903 1504.18 72.6808L1504.16 72.6609L1504.15 72.641C1500.3 66.667 1494.78 62.0148 1487.37 58.7252L1487.34 58.7108L1487.31 58.6959C1479.89 55.2767 1471 53.48 1460.51 53.48C1453.72 53.48 1447.51 53.9392 1441.88 54.8383L1435.27 55.8943L1438.51 19.207H1500.88V2.03346H1419.73L1413.84 73.8215C1427.23 70.5152 1439.42 68.8235 1450.38 68.8235C1461.88 68.8235 1471.43 70.6961 1478.33 75.1461C1485.5 79.7723 1489.24 86.6538 1489.24 95.2122C1489.24 103.348 1485.21 109.829 1478.18 114.432C1471.42 118.944 1463.04 120.991 1453.42 120.991C1444.16 120.991 1436 120.009 1429.03 117.926C1423.98 116.415 1418.48 114.425 1412.55 111.969L1408.01 129.182C1414.98 131.693 1422.03 133.707 1429.17 135.227C1437.91 137.06 1446.13 137.961 1453.83 137.961C1464.72 137.961 1474.43 136.164 1483.04 132.663ZM0 2.03346H20.7602V135.928H0V2.03346ZM853.313 2.03346H832.553V96.8342C839.651 97.3446 846.641 97.9273 853.313 98.5891V2.03346Z" fill="white"/>
    </g>
</svg>
