<svg width="125" height="60" viewBox="0 0 125 60" fill="none" xmlns="http://www.w3.org/2000/svg">
    <path d="M22.5555 45.5339V57.0743C22.5555 57.0743 18.7424 46.2586 18.6549 45.9751C18.5625 45.6867 18.3542 45.5339 17.9623 45.5339H14.3254V59.5835H16.7804V48.1959C16.7804 48.1959 20.5356 58.865 20.6317 59.1423C20.7143 59.4233 20.9559 59.5835 21.2726 59.5835H25.0093V45.5339H22.5555Z"
          fill="white"/>
    <path d="M35.4615 45.5339V59.5835H38.3478C38.3478 59.5835 38.3429 53.9094 38.3429 53.605H43.5425V51.0367L38.3478 51.044V48.1195H43.6214V45.5339H35.4615Z"
          fill="white"/>
    <path d="M102.195 45.5337V48.2352H105.418V59.5821H108.352V48.2352H111.569V45.5337H102.195Z" fill="white"/>
    <path d="M53.7791 59.5826H56.8861V45.5392H53.7791V59.5826Z" fill="white"/>
    <path d="M89.1705 59.5826H92.2787V45.5392H89.1705V59.5826Z" fill="white"/>
    <path d="M121.446 59.5826H124.54V45.5392H121.446V59.5826Z" fill="white"/>
    <path d="M0.416523 59.5826H3.52468V45.5392H0.416523V59.5826Z" fill="white"/>
    <path d="M78.4345 45.5339H75.9808V57.0743C75.9808 57.0743 72.1701 46.2586 72.0789 45.9751C71.9853 45.6867 71.777 45.5339 71.3949 45.5339H67.7507V59.5835H70.2007V48.1959C70.2007 48.1959 73.9658 58.865 74.0533 59.1423C74.142 59.4233 74.3848 59.5835 74.6929 59.5835H78.4345V45.5339Z"
          fill="white"/>
    <path d="M75.1993 22.4744C74.015 20.9401 62.4795 5.39183 62.4795 5.39183C62.4795 5.39183 50.8997 21.0719 49.7929 22.5089C45.5164 22.1441 38.0849 19.2911 38.0849 14.3404C38.0849 8.04524 48.8748 2.21465 62.4795 2.21465C76.767 2.21465 86.8765 8.04524 86.8765 14.3404C86.8765 19.2911 79.482 22.1096 75.1993 22.4744ZM62.4795 0.416548C44.9076 0.416548 32.6771 7.27991 32.6771 16.1694C32.6771 20.3165 35.3514 25.0083 41.0267 27.8293C46.2941 30.4457 53.7355 31.3577 54.8101 31.4896L62.4795 8.88945L70.2277 31.4896C71.2987 31.3577 78.6723 30.4457 83.9409 27.8293C89.6125 25.0083 92.2881 20.3165 92.2881 16.1694C92.2881 7.27991 80.0538 0.416548 62.4795 0.416548Z"
          fill="white"/>
</svg>
